<svg width="80" height="80" viewBox="0 0 80 80" fill="none" xmlns="http://www.w3.org/2000/svg">
<path d="M13.9261 35.7635L19.8817 41.7192L41.719 19.8819L35.7634 13.9262C32.7856 10.9484 21.8669 5.9854 13.9261 13.9262C5.98524 21.8671 10.9483 32.7857 13.9261 35.7635Z" fill="#FEA162" stroke="#FEA162" stroke-width="4" stroke-linecap="round" stroke-linejoin="round"/>
<path d="M3.99998 4L13.926 13.926Z" fill="#FEA162"/>
<path d="M3.99998 4L13.926 13.926" stroke="#FEA162" stroke-width="8" stroke-linecap="round" stroke-linejoin="round"/>
<path d="M65.5413 43.7042L59.5857 37.7485L37.7484 59.5858L43.704 65.5415C46.6818 68.5193 57.6005 73.4823 65.5413 65.5415C73.4821 57.6006 68.5191 46.682 65.5413 43.7042Z" fill="#FEA162" stroke="#FEA162" stroke-width="4" stroke-linecap="round" stroke-linejoin="round"/>
<path d="M41.719 55.6156L33.7782 47.6748ZM75.4675 75.4677L65.5415 65.5417ZM55.6154 41.7192L47.6746 33.7783Z" fill="#FEA162"/>
<path d="M41.719 55.6156L33.7782 47.6748M75.4675 75.4677L65.5415 65.5417M55.6154 41.7192L47.6746 33.7783" stroke="#FEA162" stroke-width="8" stroke-linecap="round" stroke-linejoin="round"/>
</svg>
