<svg width="84" height="96" viewBox="0 0 84 96" fill="none" xmlns="http://www.w3.org/2000/svg">
<path fill-rule="evenodd" clip-rule="evenodd" d="M41.6894 0C37.58 0 30.7132 1.57824 24.2513 3.33515C17.6406 5.12184 10.9762 7.23608 7.05745 8.51654C5.419 9.05762 3.96642 10.0499 2.86658 11.3794C1.76673 12.7089 1.06423 14.3217 0.839775 16.0325C-2.70978 42.6959 5.52685 62.4566 15.5204 75.5292C19.7583 81.1213 24.8113 86.0459 30.5107 90.1384C32.8096 91.7643 34.9417 93.009 36.7522 93.8606C38.4198 94.6468 40.2124 95.29 41.6894 95.29C43.1664 95.29 44.9531 94.6468 46.6266 93.8606C48.8093 92.7998 50.8973 91.5545 52.8681 90.1384C58.5676 86.046 63.6206 81.1215 67.8584 75.5292C77.852 62.4566 86.0886 42.6959 82.539 16.0325C82.315 14.3209 81.6127 12.7072 80.5129 11.3766C79.413 10.0461 77.9603 9.05273 76.3214 8.51059C70.6326 6.64537 64.8996 4.91773 59.1275 3.32919C52.6656 1.5842 45.7988 0 41.6894 0ZM54.4702 30.6476C55.0293 30.0885 55.7877 29.7744 56.5785 29.7744C57.3692 29.7744 58.1276 30.0885 58.6868 30.6476C59.2459 31.2068 59.56 31.9652 59.56 32.7559C59.56 33.5467 59.2459 34.3051 58.6868 34.8642L40.8199 52.7311C40.5433 53.0084 40.2147 53.2284 39.8529 53.3786C39.4911 53.5287 39.1033 53.6059 38.7116 53.6059C38.3199 53.6059 37.9321 53.5287 37.5703 53.3786C37.2085 53.2284 36.8799 53.0084 36.6033 52.7311L27.6699 43.7977C27.393 43.5208 27.1734 43.1921 27.0235 42.8304C26.8737 42.4686 26.7966 42.0809 26.7966 41.6894C26.7966 41.2978 26.8737 40.9101 27.0235 40.5484C27.1734 40.1866 27.393 39.8579 27.6699 39.5811C27.9467 39.3042 28.2754 39.0846 28.6372 38.9348C28.9989 38.7849 29.3866 38.7078 29.7782 38.7078C30.1697 38.7078 30.5574 38.7849 30.9192 38.9348C31.2809 39.0846 31.6096 39.3042 31.8864 39.5811L38.7116 46.4122L54.4702 30.6476Z" fill="#FEA162" fill-opacity="0.83"/>
</svg>
