<svg width="30" height="32" viewBox="0 0 30 32" fill="none" xmlns="http://www.w3.org/2000/svg">
<path d="M14.1376 0V5.07795H15.8624V0H14.1375H14.1376ZM7.09468 1.526L5.68156 2.51541L8.59364 6.67397L10.006 5.68453L7.09468 1.526ZM22.905 1.526L19.9937 5.68456L21.4063 6.674L24.3183 2.51541L22.9052 1.526H22.905ZM14.9996 6.46731C10.7803 6.46731 7.35983 9.02952 7.35983 12.1906L11.7004 25.3359H18.2996L22.6398 12.1906C22.6398 9.02957 19.2196 6.46731 15 6.46731H14.9996ZM1.279 7.99128L0.689697 9.61299L5.459 11.3494L6.0505 9.72843L1.2789 7.99128H1.279ZM28.7207 7.99128L23.949 9.72856L24.5385 11.3497L29.3102 9.61301L28.7207 7.99128ZM5.8201 15.4048L0.916097 16.7202L1.36106 18.385L6.26506 17.0715L5.82018 15.4048H5.8201ZM24.1796 15.4048L23.7349 17.0715L28.6389 18.3848L29.0836 16.7199L24.1796 15.4048V15.4048ZM11.6042 26.2942V28.5791H18.3959V26.2945H11.6042L11.6042 26.2942ZM11.6042 29.715V32H18.3959V29.7154H11.6042L11.6042 29.715Z" fill="#FEB17D"/>
</svg>
