<svg width="60" height="60" viewBox="0 0 60 60" fill="none" xmlns="http://www.w3.org/2000/svg">
<path d="M56.25 5.61865L41.2369 5.61871V1.88184C41.2369 0.845898 40.3978 0.00683594 39.3619 0.00683594C38.3259 0.00683594 37.4869 0.845898 37.4869 1.88184V5.61777H22.4869V1.88184C22.4869 0.845898 21.6478 0.00683594 20.6119 0.00683594C19.5759 0.00683594 18.7369 0.845898 18.7369 1.88184V5.61777H3.75C1.67906 5.61777 0 7.29684 0 9.36777V56.2428C0 58.3137 1.67906 59.9928 3.75 59.9928H56.25C58.3209 59.9928 60 58.3137 60 56.2428V9.36777C60 7.29771 58.3209 5.61865 56.25 5.61865ZM56.25 56.2428H3.75V9.36777H18.7369V11.2568C18.7369 12.2927 19.5759 13.1318 20.6119 13.1318C21.6478 13.1318 22.4869 12.2927 22.4869 11.2568V9.36871H37.4869V11.2578C37.4869 12.2937 38.3259 13.1328 39.3619 13.1328C40.3978 13.1328 41.2369 12.2937 41.2369 11.2578V9.36871H56.25V56.2428ZM43.125 29.9937H46.875C47.91 29.9937 48.75 29.1537 48.75 28.1187V24.3687C48.75 23.3337 47.91 22.4937 46.875 22.4937H43.125C42.09 22.4937 41.25 23.3337 41.25 24.3687V28.1187C41.25 29.1537 42.09 29.9937 43.125 29.9937ZM43.125 44.9927H46.875C47.91 44.9927 48.75 44.1537 48.75 43.1177V39.3677C48.75 38.3327 47.91 37.4927 46.875 37.4927H43.125C42.09 37.4927 41.25 38.3327 41.25 39.3677V43.1177C41.25 44.1546 42.09 44.9927 43.125 44.9927ZM31.875 37.4927H28.125C27.09 37.4927 26.25 38.3327 26.25 39.3677V43.1177C26.25 44.1537 27.09 44.9927 28.125 44.9927H31.875C32.91 44.9927 33.75 44.1537 33.75 43.1177V39.3677C33.75 38.3337 32.91 37.4927 31.875 37.4927ZM31.875 22.4937H28.125C27.09 22.4937 26.25 23.3337 26.25 24.3687V28.1187C26.25 29.1537 27.09 29.9937 28.125 29.9937H31.875C32.91 29.9937 33.75 29.1537 33.75 28.1187V24.3687C33.75 23.3327 32.91 22.4937 31.875 22.4937ZM16.875 22.4937H13.125C12.09 22.4937 11.25 23.3337 11.25 24.3687V28.1187C11.25 29.1537 12.09 29.9937 13.125 29.9937H16.875C17.91 29.9937 18.75 29.1537 18.75 28.1187V24.3687C18.75 23.3327 17.91 22.4937 16.875 22.4937ZM16.875 37.4927H13.125C12.09 37.4927 11.25 38.3327 11.25 39.3677V43.1177C11.25 44.1537 12.09 44.9927 13.125 44.9927H16.875C17.91 44.9927 18.75 44.1537 18.75 43.1177V39.3677C18.75 38.3337 17.91 37.4927 16.875 37.4927Z" fill="#00B87C"/>
</svg>
