<svg width="60" height="60" viewBox="0 0 60 60" fill="none" xmlns="http://www.w3.org/2000/svg">
<path d="M53.3333 53.3333H6.66667V6.66667H53.3333M53.3333 0H6.66667C4.89856 0 3.20286 0.702379 1.95262 1.95262C0.702379 3.20286 0 4.89856 0 6.66667V53.3333C0 55.1014 0.702379 56.7971 1.95262 58.0474C3.20286 59.2976 4.89856 60 6.66667 60H53.3333C55.1014 60 56.7971 59.2976 58.0474 58.0474C59.2976 56.7971 60 55.1014 60 53.3333V6.66667C60 4.89856 59.2976 3.20286 58.0474 1.95262C56.7971 0.702379 55.1014 0 53.3333 0ZM13.3333 20H21.0333L22.1 10H28.7667L27.7 20H34.3667L35.4333 10H42.1L41.0333 20H46.6667V26.6667H40.3333L39.6667 33.3333H46.6667V40H38.9667L37.9 50H31.2333L32.3 40H25.6333L24.5667 50H17.9L18.9667 40H13.3333V33.3333H19.6667L20.3333 26.6667H13.3333V20ZM27 26.6667L26.3333 33.3333H33L33.6667 26.6667H27Z" fill="#9C27B0"/>
</svg>
