<svg width="60" height="35" viewBox="0 0 60 35" fill="none" xmlns="http://www.w3.org/2000/svg">
<path d="M38.675 15.7327C38.4429 15.5004 38.1673 15.3162 37.864 15.1904C37.5606 15.0646 37.2355 14.9998 36.9071 14.9997C36.5788 14.9996 36.2536 15.0642 35.9502 15.1897C35.6467 15.3153 35.371 15.4993 35.1388 15.7315C34.9065 15.9636 34.7222 16.2392 34.5964 16.5425C34.4707 16.8458 34.4059 17.171 34.4057 17.4993C34.4056 17.8277 34.4702 18.1529 34.5957 18.4563C34.7213 18.7597 34.9054 19.0354 35.1375 19.2677C35.6063 19.7368 36.2422 20.0005 36.9054 20.0007C37.5685 20.001 38.2046 19.7377 38.6737 19.269C39.1429 18.8002 39.4065 18.1643 39.4068 17.5011C39.407 16.8379 39.1438 16.2018 38.675 15.7327V15.7327ZM40.4425 10.4302C40.6731 10.1914 40.949 10.001 41.254 9.86996C41.559 9.73894 41.887 9.66997 42.219 9.66709C42.5509 9.6642 42.8801 9.72746 43.1874 9.85316C43.4946 9.97886 43.7738 10.1645 44.0085 10.3992C44.2432 10.634 44.4289 10.9131 44.5546 11.2203C44.6803 11.5276 44.7435 11.8568 44.7406 12.1887C44.7377 12.5207 44.6688 12.8487 44.5378 13.1537C44.4067 13.4587 44.2163 13.7346 43.9775 13.9652C43.506 14.4206 42.8745 14.6726 42.219 14.6669C41.5635 14.6612 40.9365 14.3983 40.473 13.9348C40.0094 13.4712 39.7465 12.8442 39.7408 12.1887C39.7351 11.5332 39.9871 10.9017 40.4425 10.4302V10.4302ZM49.28 15.7327C49.0494 15.4939 48.7735 15.3035 48.4685 15.1725C48.1635 15.0414 47.8355 14.9725 47.5035 14.9696C47.1716 14.9667 46.8424 15.03 46.5351 15.1557C46.2279 15.2814 45.9487 15.467 45.714 15.7017C45.4793 15.9365 45.2936 16.2156 45.1679 16.5228C45.0422 16.8301 44.979 17.1593 44.9819 17.4912C44.9848 17.8232 45.0537 18.1512 45.1847 18.4562C45.3158 18.7612 45.5062 19.0371 45.745 19.2677C46.2165 19.7231 46.848 19.9751 47.5035 19.9694C48.159 19.9637 48.786 19.7008 49.2495 19.2373C49.7131 18.7737 49.976 18.1467 49.9817 17.4912C49.9874 16.8357 49.7354 16.2042 49.28 15.7327ZM40.4425 21.0352C40.6748 20.8031 40.9505 20.619 41.2539 20.4935C41.5573 20.3679 41.8825 20.3033 42.2109 20.3035C42.5393 20.3036 42.8644 20.3684 43.1677 20.4941C43.4711 20.6199 43.7466 20.8042 43.9787 21.0365C44.2109 21.2687 44.395 21.5445 44.5205 21.8479C44.6461 22.1513 44.7106 22.4765 44.7105 22.8048C44.7104 23.1332 44.6456 23.4583 44.5198 23.7617C44.3941 24.065 44.2098 24.3406 43.9775 24.5727C43.5084 25.0415 42.8723 25.3047 42.2091 25.3045C41.5459 25.3042 40.91 25.0406 40.4413 24.5715C39.9725 24.1024 39.7093 23.4663 39.7095 22.8031C39.7097 22.1399 39.9734 21.504 40.4425 21.0352V21.0352ZM15 20.0002H10V15.0002H15V10.0002H20V15.0002H25V20.0002H20V25.0002H15V20.0002Z" fill="#1A61DB"/>
<path fill-rule="evenodd" clip-rule="evenodd" d="M17.5 0C12.8587 6.91606e-08 8.40752 1.84374 5.12563 5.12563C1.84375 8.40752 0 12.8587 0 17.5C0 22.1413 1.84375 26.5925 5.12563 29.8744C8.40752 33.1563 12.8587 35 17.5 35H42.5C44.7981 35 47.0738 34.5474 49.197 33.6679C51.3202 32.7884 53.2493 31.4994 54.8744 29.8744C56.4994 28.2493 57.7884 26.3202 58.6679 24.197C59.5474 22.0738 60 19.7981 60 17.5C60 15.2019 59.5474 12.9262 58.6679 10.803C57.7884 8.67984 56.4994 6.75066 54.8744 5.12563C53.2493 3.50061 51.3202 2.21157 49.197 1.33211C47.0738 0.45265 44.7981 -3.42448e-08 42.5 0H17.5ZM42.5 5H17.5C14.1848 5 11.0054 6.31696 8.66117 8.66117C6.31696 11.0054 5 14.1848 5 17.5C5 20.8152 6.31696 23.9946 8.66117 26.3388C11.0054 28.683 14.1848 30 17.5 30H42.5C45.8152 30 48.9946 28.683 51.3388 26.3388C53.683 23.9946 55 20.8152 55 17.5C55 14.1848 53.683 11.0054 51.3388 8.66117C48.9946 6.31696 45.8152 5 42.5 5V5Z" fill="#1A61DB"/>
</svg>
