<svg width="96" height="96" viewBox="0 0 96 96" fill="none" xmlns="http://www.w3.org/2000/svg">
<path d="M70.9711 80.8971C69.6476 80.8971 68.3903 80.6496 67.1992 80.1547C66.0081 79.657 64.9162 78.9119 63.9236 77.9193L44.0715 57.968C42.748 58.4974 41.4087 58.8944 40.0534 59.1591C38.6956 59.4238 37.2556 59.5561 35.7336 59.5561C29.1163 59.5561 23.4915 57.2401 18.8594 52.6079C14.2272 47.9758 11.9111 42.351 11.9111 35.7336C11.9111 33.3514 12.242 31.0843 12.9037 28.9323C13.5655 26.783 14.4919 24.7488 15.683 22.8298L30.175 37.3218L37.3218 30.175L22.8298 15.683C24.7488 14.4919 26.783 13.5655 28.9323 12.9037C31.0843 12.242 33.3514 11.9111 35.7336 11.9111C42.351 11.9111 47.9758 14.2272 52.6079 18.8594C57.2401 23.4915 59.5561 29.1163 59.5561 35.7336C59.5561 37.2556 59.4238 38.6942 59.1591 40.0495C58.8944 41.4074 58.4974 42.748 57.968 44.0715L78.0186 63.9236C79.0112 64.9162 79.7563 66.0081 80.2539 67.1992C80.7489 68.3903 80.9964 69.6476 80.9964 70.9711C80.9964 72.2946 80.7317 73.5677 80.2023 74.7906C79.6729 76.0162 78.945 77.0921 78.0186 78.0186C77.026 79.0112 75.9341 79.7391 74.743 80.2023C73.5519 80.6655 72.2946 80.8971 70.9711 80.8971Z" fill="#FEA162" fill-opacity="0.83"/>
</svg>
