<svg width="53" height="40" viewBox="0 0 53 40" fill="none" xmlns="http://www.w3.org/2000/svg">
<path d="M43 35C45.75 35 47.975 32.75 47.975 30L48 5C48 3.67392 47.4732 2.40215 46.5355 1.46447C45.5979 0.526784 44.3261 0 43 0H3C0.225 0 -2 2.225 -2 5V30C-2 31.3261 -1.47322 32.5979 -0.535534 33.5355C0.402148 34.4732 1.67392 35 3 35H-7V40H53V35H43ZM3 30V5H43V30.025L3 30ZM25.5 12.825C15.775 14.175 11.9 20.825 10.5 27.5C13.975 22.825 18.55 20.7 25.5 20.7V26.175L35.5 16.825L25.5 7.5V12.825Z" fill="#9C27B0"/>
</svg>
