<svg width="46" height="53" viewBox="0 0 46 53" fill="none" xmlns="http://www.w3.org/2000/svg">
<path d="M31.75 0H14.5C13.5 0 12.5 0.5 11.75 1.25C11 2 10.5 3 10.5 4V36C10.5 37 11 38 11.75 38.75C12.5 39.5 13.5 40 14.5 40H39C40 40 41 39.5 41.75 38.75C42.5 38 43 37 43 36V11.25L31.75 0Z" stroke="#00B87C" stroke-width="5.5" stroke-linecap="round" stroke-linejoin="round"/>
<path d="M0.5 14V46C0.5 47 1 48 1.75 48.75C2.5 49.5 3.5 50 4.5 50H29M30.5 0V12.5H43" stroke="#00B87C" stroke-width="5.5" stroke-linecap="round" stroke-linejoin="round"/>
</svg>
