<svg width="96" height="86" viewBox="0 0 96 86" fill="none" xmlns="http://www.w3.org/2000/svg">
<path fill-rule="evenodd" clip-rule="evenodd" d="M85.761 0H9.529C4.28805 0 0 4.28805 0 9.529V76.232C0 81.473 4.28805 85.761 9.529 85.761H85.761C91.002 85.761 95.29 81.473 95.29 76.232V9.529C95.29 4.28805 91.002 0 85.761 0ZM33.3515 66.703H19.058C16.4375 66.703 14.2935 64.559 14.2935 61.9385C14.2935 59.318 16.4375 57.174 19.058 57.174H33.3515C35.972 57.174 38.116 59.318 38.116 61.9385C38.116 64.559 35.972 66.703 33.3515 66.703ZM33.3515 47.645H19.058C16.4375 47.645 14.2935 45.501 14.2935 42.8805C14.2935 40.26 16.4375 38.116 19.058 38.116H33.3515C35.972 38.116 38.116 40.26 38.116 42.8805C38.116 45.501 35.972 47.645 33.3515 47.645ZM33.3515 28.587H19.058C16.4375 28.587 14.2935 26.443 14.2935 23.8225C14.2935 21.202 16.4375 19.058 19.058 19.058H33.3515C35.972 19.058 38.116 21.202 38.116 23.8225C38.116 26.443 35.972 28.587 33.3515 28.587ZM79.5672 38.6877L64.4637 53.7912C62.6055 55.6494 59.5562 55.6494 57.6981 53.7912L50.9802 47.0256C50.539 46.5845 50.1891 46.0608 49.9504 45.4845C49.7117 44.9082 49.5888 44.2905 49.5888 43.6666C49.5888 43.0428 49.7117 42.4251 49.9504 41.8488C50.1891 41.2724 50.539 40.7488 50.9802 40.3077C51.4213 39.8666 51.9449 39.5167 52.5213 39.2779C53.0976 39.0392 53.7153 38.9163 54.3391 38.9163C54.9629 38.9163 55.5807 39.0392 56.157 39.2779C56.7333 39.5167 57.257 39.8666 57.6981 40.3077L61.0809 43.6905L72.8492 31.9221C73.29 31.4805 73.8136 31.13 74.3899 30.891C74.9663 30.6519 75.5842 30.5288 76.2082 30.5288C76.8322 30.5288 77.4501 30.6519 78.0264 30.891C78.6028 31.13 79.1264 31.4805 79.5672 31.9221L79.6148 31.9698C81.4253 33.8279 81.4253 36.8772 79.5672 38.6877Z" fill="#FEA162" fill-opacity="0.83"/>
</svg>
