<svg width="42" height="42" viewBox="0 0 42 42" fill="none" xmlns="http://www.w3.org/2000/svg">
<path d="M19.7997 9.95162C19.7995 7.80338 19.1079 5.71286 17.8281 3.99245C16.5483 2.27203 14.7491 1.01411 12.6992 0.406645C10.6494 -0.200816 8.45906 -0.125193 6.45553 0.622212C4.45199 1.36962 2.74284 2.74867 1.58348 4.5533C0.424112 6.35793 -0.12321 8.49123 0.0232999 10.6344C0.169809 12.7776 1.00228 14.8156 2.39632 16.4438C3.79036 18.0721 5.67111 19.2031 7.75751 19.668C9.84392 20.1329 12.024 19.9066 13.9719 19.023C14.6856 18.6973 15.2854 18.3848 17.6586 19.1903C17.9388 19.2827 18.2803 19.3795 18.6612 19.4984C18.7925 19.5398 18.9316 19.5497 19.0673 19.527C19.203 19.5044 19.3315 19.4499 19.4424 19.368C19.5533 19.2862 19.6434 19.1792 19.7055 19.0558C19.7675 18.9324 19.7998 18.796 19.7997 18.6577V9.95162Z" fill="#00B87C" fill-opacity="0.5"/>
<path d="M21.7314 32.0484C21.7316 34.1966 22.4232 36.2872 23.703 38.0076C24.9828 39.728 26.7821 40.9859 28.8319 41.5934C30.8817 42.2008 33.072 42.1252 35.0756 41.3778C37.0791 40.6304 38.7883 39.2513 39.9476 37.4467C41.107 35.6421 41.6543 33.5088 41.5078 31.3656C41.3613 29.2224 40.5288 27.1844 39.1348 25.5562C37.7408 23.928 35.86 22.7969 33.7736 22.332C31.6872 21.8671 29.5071 22.0934 27.5593 22.977C26.8412 23.3027 26.2457 23.6152 23.8682 22.8098C23.5923 22.7173 23.2508 22.6205 22.8699 22.5017C22.7386 22.4602 22.5995 22.4504 22.4638 22.473C22.3281 22.4956 22.1996 22.5501 22.0887 22.632C21.9778 22.7138 21.8877 22.8208 21.8256 22.9442C21.7636 23.0677 21.7313 23.204 21.7314 23.3423V32.0484Z" fill="#DC1AA3"/>
<path d="M31.8813 19.9033C37.3488 19.9033 41.7811 15.4478 41.7811 9.95167C41.7811 4.45551 37.3488 0 31.8813 0C26.4138 0 21.9814 4.45551 21.9814 9.95167C21.9814 15.4478 26.4138 19.9033 31.8813 19.9033Z" fill="#1A61DB"/>
<path d="M9.89983 42C15.3674 42 19.7997 37.5445 19.7997 32.0483C19.7997 26.5522 15.3674 22.0967 9.89983 22.0967C4.43231 22.0967 0 26.5522 0 32.0483C0 37.5445 4.43231 42 9.89983 42Z" fill="#FEA162"/>
</svg>
