<svg width="59" height="52" viewBox="0 0 59 52" fill="none" xmlns="http://www.w3.org/2000/svg">
<path d="M59 0V36.1111C59 38.7927 57.8355 41.3645 55.7628 43.2607C53.69 45.1569 50.8787 46.2222 47.9474 46.2222C45.016 46.2222 42.2048 45.1569 40.132 43.2607C38.0592 41.3645 36.8947 38.7927 36.8947 36.1111C36.8947 33.4295 38.0592 30.8577 40.132 28.9615C42.2048 27.0653 45.016 26 47.9474 26C49.6526 26 51.2632 26.3467 52.6842 26.9822V10.0244L21.1053 16.1778V41.8889C21.1053 44.5705 19.9408 47.1423 17.868 49.0385C15.7953 50.9347 12.984 52 10.0526 52C7.12129 52 4.31001 50.9347 2.23724 49.0385C0.16447 47.1423 -1 44.5705 -1 41.8889C-1 39.2073 0.16447 36.6355 2.23724 34.7393C4.31001 32.8431 7.12129 31.7778 10.0526 31.7778C11.7579 31.7778 13.3684 32.1244 14.7895 32.76V8.66667L59 0Z" fill="#0A7D57" fill-opacity="0.8"/>
</svg>
