<svg width="44" height="54" viewBox="0 0 44 54" fill="none" xmlns="http://www.w3.org/2000/svg">
<path d="M37 20C37 16.0218 35.4197 12.2064 32.6066 9.3934C29.7936 6.58035 25.9782 5 22 5C18.0218 5 14.2064 6.58035 11.3934 9.3934C8.58035 12.2064 7 16.0218 7 20V40H37V20ZM42 41.6675L43 43C43.1393 43.1857 43.2241 43.4065 43.2449 43.6377C43.2658 43.8689 43.2219 44.1014 43.118 44.309C43.0142 44.5166 42.8546 44.6913 42.6572 44.8133C42.4597 44.9354 42.2321 45 42 45H2C1.76786 45 1.54031 44.9354 1.34284 44.8133C1.14537 44.6913 0.985783 44.5166 0.881966 44.309C0.77815 44.1014 0.734204 43.8689 0.755051 43.6377C0.775899 43.4065 0.860716 43.1857 1 43L2 41.6675V20C2 14.6957 4.10714 9.60859 7.85787 5.85786C11.6086 2.10714 16.6957 0 22 0C27.3043 0 32.3914 2.10714 36.1421 5.85786C39.8929 9.60859 42 14.6957 42 20V41.6675ZM15.75 47.5H28.25C28.25 49.1576 27.5915 50.7473 26.4194 51.9194C25.2473 53.0915 23.6576 53.75 22 53.75C20.3424 53.75 18.7527 53.0915 17.5806 51.9194C16.4085 50.7473 15.75 49.1576 15.75 47.5Z" fill="#1976D2"/>
</svg>
