<svg width="96" height="96" viewBox="0 0 96 96" fill="none" xmlns="http://www.w3.org/2000/svg">
<circle cx="19.8521" cy="67.4971" r="19.8521" fill="#FEA162" fill-opacity="0.83"/>
<circle cx="71.4673" cy="66.7139" r="19.8521" fill="#FEA162" fill-opacity="0.83"/>
<path d="M69.4818 13.8968C63.102 -0.499719 51.5741 3.00021 51.5742 20.0002C51.5744 33.172 51.5743 56.3598 51.5742 66.1353C51.5742 68.8303 53.3711 71.1841 55.9677 71.9057L69.0209 75.5334C71.1614 76.1282 73.4554 75.4917 74.9833 73.8789L86.5499 61.6692C88.2119 59.9148 88.6641 57.3459 87.6894 55.1347C83.9352 46.6183 74.5144 25.2534 69.4818 13.8968Z" fill="#FEA162" fill-opacity="0.83"/>
<path d="M21.8112 13.9955C28.1909 -0.401086 39.7189 3.09884 39.7187 20.0989C39.7186 33.2706 39.7187 56.4584 39.7187 66.234C39.7187 68.9289 37.9219 71.2827 35.3253 72.0043L22.272 75.632C20.1315 76.2269 17.8375 75.5903 16.3097 73.9775L4.74303 61.7678C3.08108 60.0135 2.62885 57.4446 3.6036 55.2333C7.35777 46.7169 16.7785 25.352 21.8112 13.9955Z" fill="#FEA162" fill-opacity="0.83"/>
<rect x="39.7041" y="27.793" width="11.9113" height="35.7337" fill="#FEA162" fill-opacity="0.83"/>
</svg>
