<svg width="96" height="96" viewBox="0 0 96 96" fill="none" xmlns="http://www.w3.org/2000/svg">
<g clip-path="url(#clip0_35_212)">
<path d="M95.2945 66.7062V85.7651C95.2945 88.2925 94.2905 90.7163 92.5034 92.5034C90.7163 94.2905 88.2925 95.2945 85.7651 95.2945H66.7062V85.7651C66.7062 83.2377 65.7022 80.8139 63.9151 79.0267C62.1279 77.2396 59.7041 76.2356 57.1767 76.2356C54.6494 76.2356 52.2255 77.2396 50.4384 79.0267C48.6513 80.8139 47.6473 83.2377 47.6473 85.7651V95.2945H28.5884C26.061 95.2945 23.6371 94.2905 21.85 92.5034C20.0629 90.7163 19.0589 88.2925 19.0589 85.7651V66.7062H9.52945C7.00209 66.7062 4.57823 65.7022 2.79111 63.9151C1.00399 62.1279 0 59.7041 0 57.1767C0 54.6494 1.00399 52.2255 2.79111 50.4384C4.57823 48.6513 7.00209 47.6473 9.52945 47.6473H19.0589V28.5884C19.0589 23.3472 23.3472 19.0589 28.5884 19.0589H47.6473V9.52945C47.6473 7.00209 48.6513 4.57823 50.4384 2.79111C52.2255 1.00399 54.6494 0 57.1767 0C59.7041 0 62.1279 1.00399 63.9151 2.79111C65.7022 4.57823 66.7062 7.00209 66.7062 9.52945V19.0589H85.7651C88.2925 19.0589 90.7163 20.0629 92.5034 21.85C94.2905 23.6371 95.2945 26.061 95.2945 28.5884V47.6473H85.7651C83.2377 47.6473 80.8139 48.6513 79.0267 50.4384C77.2396 52.2255 76.2356 54.6494 76.2356 57.1767C76.2356 59.7041 77.2396 62.1279 79.0267 63.9151C80.8139 65.7022 83.2377 66.7062 85.7651 66.7062H95.2945Z" fill="#FEA162" fill-opacity="0.83"/>
</g>
<defs>
<clipPath id="clip0_35_212">
<rect width="95.2945" height="95.2945" fill="white"/>
</clipPath>
</defs>
</svg>
