<svg width="50" height="37" viewBox="0 0 50 37" fill="none" xmlns="http://www.w3.org/2000/svg">
<path d="M14.5 0.6875C7.75375 0.6875 2.25 6.28953 2.25 13.1562C2.25 13.9079 2.3795 14.6044 2.509 15.2991C1.319 17.0803 0.5 19.168 0.5 21.5068C0.5 27.6432 5.38775 32.6324 11.3973 32.7215C13.597 34.859 16.4757 36.3125 19.75 36.3125C23.1135 36.3125 26.0465 34.7806 28.2603 32.5487C28.3635 32.5558 28.3775 32.563 28.5 32.563C31.2965 32.563 33.5715 31.0097 35.1325 28.9025C35.829 29.0272 36.5115 29.1875 37.25 29.1875C43.9963 29.1875 49.5 23.5855 49.5 16.7188C49.5 9.85203 43.9963 4.25 37.25 4.25C36.0337 4.25 34.912 4.57062 33.8042 4.90372C31.8022 3.43597 29.403 2.46875 26.75 2.46875C25.0963 2.46875 23.6052 3.02628 22.1562 3.63725C20.051 1.87738 17.44 0.6875 14.5 0.6875ZM14.5 4.25C16.8853 4.25 19.0185 5.21187 20.597 6.78294L21.514 7.68781L22.641 7.07506C23.9046 6.38603 25.3165 6.02734 26.75 6.03125C28.8039 6.02559 30.793 6.76295 32.3623 8.11175L33.155 8.78684L34.1175 8.411C35.4419 7.88735 36.8719 7.70088 38.2832 7.8678C39.6945 8.03473 41.0444 8.54999 42.2156 9.36881C43.3867 10.1876 44.3437 11.2852 45.0032 12.5661C45.6627 13.8471 46.0049 15.2726 46 16.7188C46.004 18.0864 45.6975 19.4364 45.1046 20.6637C44.5116 21.8909 43.6482 22.9622 42.5815 23.7939C41.5149 24.6256 40.274 25.1953 38.9554 25.4585C37.6369 25.7218 36.2765 25.6714 34.9802 25.3115L33.6205 24.9374L32.9782 26.2092C32.1225 27.8729 30.4618 29.0005 28.5 29.0005L27.975 28.9363L27.051 28.8473L26.449 29.5705C25.6292 30.5674 24.6043 31.3688 23.4468 31.9183C22.2892 32.4677 21.0272 32.7516 19.75 32.75C18.5133 32.751 17.2907 32.4833 16.1638 31.9648C15.0369 31.4463 14.0317 30.6889 13.2155 29.7432L12.6608 29.1109L11.8348 29.1519C11.4585 29.1661 11.3693 29.1875 11.546 29.1875C10.5539 29.1913 9.5708 28.9951 8.65349 28.6103C7.73618 28.2256 6.90277 27.6598 6.2013 26.9456C5.49982 26.2315 4.94417 25.383 4.56636 24.4493C4.18855 23.5155 3.99607 22.5148 4 21.505C4 19.7113 4.63 18.0832 5.66775 16.7544L6.2015 16.0775L5.99675 15.2368C5.6825 13.9274 5.66521 12.5624 5.94619 11.2453C6.22718 9.92815 6.79907 8.6934 7.61851 7.63463C8.43794 6.57586 9.48343 5.72086 10.6757 5.13444C11.868 4.54802 13.1758 4.24556 14.5 4.25ZM16.7155 13.1562C16.6805 13.1562 16.6525 13.1847 16.6525 13.2275V18.4234C16.6525 18.4644 16.6805 18.5 16.7155 18.5H17.3105C17.3507 18.5 17.3717 18.4644 17.3717 18.4234V13.2257C17.3717 13.1901 17.3438 13.1562 17.3088 13.1562H16.7155ZM27.0982 13.1562C26.6747 13.1562 26.3457 13.2738 26.1147 13.5178C25.882 13.7548 25.7175 14.1591 25.6353 14.6311L25.595 14.9375H25.07C25.07 14.9375 25 14.9589 24.993 15.0266L24.9055 15.5218C24.8967 15.5645 24.9177 15.5983 24.979 15.5983H25.4918L24.979 18.5071C24.9492 18.706 24.9011 18.9016 24.8355 19.0914C24.8026 19.2115 24.7493 19.3249 24.678 19.4263C24.6168 19.5082 24.5625 19.5652 24.468 19.5919C24.2754 19.6572 24.0662 19.6503 23.8783 19.5723C23.8783 19.5723 23.8258 19.5509 23.7977 19.6133C23.7384 19.7704 23.6812 19.9283 23.6263 20.0871C23.6122 20.1352 23.6332 20.1708 23.6612 20.1833C23.7315 20.2108 23.8042 20.2317 23.8783 20.2456C24.0007 20.2812 24.111 20.2812 24.2073 20.2812C24.426 20.2812 24.6168 20.2456 24.7812 20.1922C24.9459 20.1275 25.0933 20.0244 25.2118 19.8912C25.3426 19.7347 25.4446 19.5555 25.5127 19.3621C25.595 19.1484 25.6562 18.8758 25.7105 18.5623L26.2302 15.5983H26.9968C26.9968 15.5983 27.065 15.5983 27.079 15.5218L27.1595 15.0355C27.1665 14.9856 27.1472 14.9375 27.0842 14.9375H26.3475C26.3528 14.9233 26.4 14.4637 26.491 14.2143C26.5247 14.1204 26.5785 14.0352 26.6485 13.9649C26.7031 13.9068 26.7711 13.8633 26.8463 13.8385C27.03 13.7854 27.2253 13.7904 27.4062 13.8527C27.4815 13.8723 27.4885 13.8527 27.5095 13.8171L27.6793 13.3237C27.7003 13.2685 27.66 13.2471 27.6442 13.24C27.5693 13.2136 27.4919 13.1951 27.4132 13.1847C27.3096 13.1636 27.204 13.1541 27.0982 13.1562ZM11.0402 14.9375C10.2825 14.9375 9.75575 15.3686 9.75575 15.9813V15.9956C9.75575 16.6368 10.3368 16.8506 10.8845 16.9966L10.972 17.0251C11.3693 17.1356 11.7105 17.2335 11.7105 17.4972V17.5043C11.7105 17.7483 11.4848 17.9229 11.1295 17.9229C10.993 17.9229 10.5485 17.9229 10.0707 17.6379C10.023 17.6168 9.97725 17.5912 9.93425 17.5613C9.90625 17.547 9.852 17.5257 9.824 17.5969L9.6595 18.0191C9.63325 18.0832 9.6665 18.0957 9.6735 18.1099C9.75575 18.1598 9.831 18.1936 9.90625 18.2346C10.3158 18.4377 10.706 18.5 11.1102 18.5C11.9362 18.5 12.449 18.0903 12.449 17.4223V17.4152C12.449 16.7953 11.868 16.5727 11.329 16.4124L11.259 16.391C10.8495 16.2663 10.4943 16.1612 10.4943 15.9101V15.8923C10.4943 15.6749 10.699 15.5218 11.0192 15.5218C11.3762 15.5218 11.7928 15.6268 12.0658 15.7711C12.0658 15.7711 12.148 15.8139 12.176 15.7444C12.197 15.7034 12.3335 15.3543 12.3475 15.3205C12.3598 15.2777 12.3335 15.2492 12.3055 15.2368C11.9424 15.0368 11.5353 14.9338 11.1225 14.9375H11.0402ZM14.479 14.9375C14.2708 14.9388 14.063 14.9572 13.8578 14.9927C13.8578 14.9927 13.345 15.0836 13.1332 15.2421C13.1332 15.2421 13.0913 15.2653 13.1193 15.3276L13.2838 15.7444C13.303 15.7996 13.359 15.78 13.359 15.78C13.359 15.78 13.3713 15.7729 13.394 15.7658C13.8438 15.5289 14.4108 15.5431 14.4108 15.5431C14.6645 15.5431 14.8553 15.5841 14.9918 15.6821C15.1143 15.7711 15.1842 15.919 15.1842 16.2111V16.3002C14.9847 16.2734 14.7992 16.2521 14.7992 16.2521C14.7047 16.2449 14.5823 16.2449 14.4318 16.2449C14.2382 16.2431 14.0452 16.2671 13.8578 16.3162C13.6844 16.3574 13.5196 16.4298 13.3712 16.5299C13.2337 16.6225 13.1197 16.7471 13.0387 16.8933C12.9493 17.0467 12.9038 17.2226 12.9075 17.401C12.9075 17.5969 12.9425 17.7626 13.009 17.9015C13.0833 18.0404 13.1888 18.1595 13.317 18.2488C13.4628 18.3403 13.6225 18.4065 13.7895 18.4448C13.9732 18.4804 14.185 18.5 14.4108 18.5C14.6505 18.5 14.8902 18.4786 15.1212 18.4448C15.354 18.4092 15.6287 18.3539 15.7092 18.3326C15.7845 18.3183 15.8668 18.2969 15.8668 18.2969C15.928 18.2845 15.921 18.2292 15.921 18.2292V16.2164C15.921 15.7711 15.7985 15.4452 15.5535 15.2439C15.3068 15.0426 14.9445 14.9375 14.479 14.9375ZM19.729 14.9375C19.4674 14.9294 19.207 14.9767 18.9642 15.0764C18.7627 15.1657 18.5821 15.2976 18.4345 15.4635C18.2869 15.6293 18.1758 15.8253 18.1085 16.0383C18.0403 16.2521 18.007 16.489 18.007 16.7401C18.007 16.9966 18.0473 17.2335 18.1155 17.4419C18.1855 17.6575 18.301 17.8463 18.4585 17.9995C18.609 18.1598 18.7997 18.2845 19.0395 18.3682C19.2722 18.4572 19.5592 18.5 19.8865 18.5C20.5637 18.4929 20.912 18.3539 21.0625 18.2773C21.0835 18.2631 21.1098 18.2417 21.0835 18.1723L20.926 17.7697C20.905 17.7073 20.8385 17.7269 20.8385 17.7269C20.6652 17.7911 20.4342 17.8944 19.8795 17.8944C19.5173 17.8944 19.2495 17.7964 19.0868 17.6379C18.91 17.4776 18.8278 17.2407 18.8138 16.9076H21.1448C21.1448 16.9076 21.206 16.9076 21.213 16.8506C21.213 16.8238 21.2952 16.391 21.143 15.8976C21.0841 15.7046 20.9816 15.5283 20.8438 15.3828C20.7211 15.2483 20.572 15.1415 20.4062 15.0693C20.1915 14.9796 19.9611 14.9348 19.729 14.9375ZM23.0592 14.9375C22.3067 14.9375 21.773 15.3686 21.773 15.9813V15.9956C21.773 16.6368 22.361 16.8506 22.9017 16.9966L22.9963 17.0251C23.3935 17.1356 23.7348 17.2335 23.7348 17.4972V17.5043C23.7348 17.7483 23.509 17.9229 23.1467 17.9229C23.0103 17.9229 22.5658 17.9229 22.088 17.6379C22.0338 17.6094 21.9918 17.588 21.9515 17.5613C21.9375 17.5542 21.8692 17.5257 21.8412 17.5969L21.6838 18.0191C21.6575 18.0832 21.6908 18.0957 21.6978 18.1099C21.773 18.1598 21.8483 18.1936 21.9305 18.2346C22.3055 18.419 22.7182 18.51 23.1345 18.5C23.9535 18.5 24.4733 18.0903 24.4733 17.4223V17.4152C24.4733 16.7953 23.8923 16.5727 23.3533 16.4124L23.278 16.391C22.8667 16.2663 22.5115 16.1612 22.5115 15.9101V15.8923C22.5115 15.6749 22.7233 15.5218 23.0365 15.5218C23.3935 15.5218 23.817 15.6268 24.09 15.7711C24.09 15.7711 24.1723 15.8139 24.2003 15.7444C24.2532 15.6014 24.3104 15.46 24.3717 15.3205C24.384 15.2777 24.3577 15.2492 24.3228 15.2368C23.9601 15.0371 23.5538 14.9341 23.1415 14.9375H23.0592ZM28.7817 14.9375C28.5 14.9375 28.2462 14.9856 28.0345 15.0764C27.8354 15.1631 27.6578 15.2939 27.5148 15.4594C27.3694 15.6213 27.2601 15.8133 27.1945 16.0223C27.0647 16.4796 27.0647 16.965 27.1945 17.4223C27.2593 17.6334 27.3687 17.8274 27.515 17.9908C27.6613 18.1542 27.841 18.283 28.0415 18.3682C28.2768 18.461 28.5277 18.5058 28.78 18.5C29.06 18.5 29.305 18.459 29.5185 18.3611C29.7214 18.2772 29.9036 18.1489 30.0522 17.9852C30.1933 17.8225 30.2978 17.6304 30.3585 17.4223C30.4285 17.205 30.4635 16.9699 30.4635 16.7188C30.4635 16.4747 30.4285 16.2378 30.3585 16.0241C30.2981 15.8154 30.1935 15.6227 30.0522 15.4594C29.904 15.2936 29.7218 15.1628 29.5185 15.0764C29.2839 14.9805 29.0328 14.9333 28.78 14.9375H28.7817ZM34.8787 14.9375C34.59 14.9375 34.331 14.9856 34.1052 15.0764C33.8975 15.1611 33.7109 15.2919 33.5592 15.4594C33.4052 15.6175 33.2901 15.8103 33.2232 16.0223C33.1423 16.245 33.1031 16.4813 33.1077 16.7188C33.1077 17.262 33.2583 17.6984 33.5662 18.0191C33.8725 18.3397 34.324 18.5 34.926 18.5C35.2812 18.5 35.6435 18.4288 35.9025 18.3326C35.9025 18.3326 35.9515 18.313 35.9305 18.256L35.759 17.8178C35.7397 17.7554 35.6715 17.7768 35.6715 17.7768C35.5708 17.8194 35.4648 17.8475 35.3565 17.8605C35.2297 17.8806 35.1015 17.8895 34.9732 17.8873C34.639 17.8873 34.3713 17.7982 34.1875 17.6094C33.995 17.4277 33.8865 17.1284 33.8865 16.7188C33.8935 16.3572 33.9827 16.0775 34.1525 15.8638C34.324 15.6536 34.5777 15.5503 34.919 15.5503C35.199 15.5503 35.4178 15.5859 35.6435 15.6464C35.6435 15.6464 35.7048 15.6678 35.7257 15.6055C35.787 15.4452 35.8342 15.3347 35.8972 15.1602C35.9165 15.1049 35.8692 15.0836 35.8552 15.0764C35.7026 15.0318 35.5478 14.995 35.3915 14.966C35.2214 14.9448 35.0501 14.9352 34.8787 14.9375ZM37.7347 14.9375C37.4731 14.9294 37.2127 14.9767 36.97 15.0764C36.7666 15.1636 36.5842 15.2948 36.4355 15.4609C36.2868 15.627 36.1754 15.824 36.109 16.0383C36.0446 16.2665 36.0122 16.5027 36.0127 16.7401C36.0127 16.9966 36.0477 17.2335 36.1213 17.4419C36.1861 17.6532 36.3016 17.8448 36.4573 17.9995C36.6147 18.1598 36.8073 18.2845 37.0382 18.3682C37.278 18.4572 37.5633 18.5 37.8853 18.5C38.5625 18.4929 38.9178 18.3539 39.0612 18.2773C39.0892 18.2631 39.1155 18.2417 39.0823 18.1723L38.9248 17.7697C38.9038 17.7073 38.8372 17.7269 38.8372 17.7269C38.671 17.7911 38.433 17.8944 37.8783 17.8944C37.523 17.8944 37.257 17.7964 37.0855 17.6379C36.9157 17.4776 36.8335 17.2407 36.8125 16.9076H39.1435C39.1435 16.9076 39.2048 16.9076 39.2188 16.8506C39.2188 16.8238 39.294 16.391 39.1435 15.8976C39.0841 15.7044 38.981 15.5281 38.8425 15.3828C38.7198 15.2483 38.5708 15.1415 38.405 15.0693C38.1927 14.9796 37.9646 14.9348 37.7347 14.9375ZM32.6772 14.9375C32.4694 14.9183 32.2601 14.952 32.0682 15.0355C31.9166 15.0992 31.7809 15.1965 31.671 15.3205V15.0426C31.671 14.9998 31.6518 14.9713 31.6098 14.9713H31.0148C30.9745 14.9713 30.9412 14.9998 30.9412 15.0426V18.4305C30.9412 18.4662 30.9762 18.5 31.0165 18.5H31.6237C31.6658 18.5 31.699 18.4644 31.699 18.4288V16.7401C31.699 16.5086 31.727 16.2806 31.7743 16.1345C31.8142 16.0074 31.8846 15.8923 31.979 15.7996C32.0649 15.7247 32.165 15.6683 32.273 15.634C32.4576 15.5778 32.654 15.5753 32.84 15.6268C32.882 15.6268 32.91 15.5983 32.9222 15.5556C32.9643 15.4594 33.0728 15.1459 33.0938 15.0836C33.0973 15.0762 33.0995 15.0682 33.1 15.06C33.1005 15.0518 33.0995 15.0436 33.0969 15.0358C33.0943 15.028 33.0902 15.0208 33.0848 15.0146C33.0795 15.0085 33.073 15.0034 33.0658 14.9998C32.9378 14.9702 32.808 14.9494 32.6772 14.9375ZM19.6747 15.5218C19.9827 15.5218 20.1875 15.634 20.331 15.8424C20.4257 15.9975 20.4799 16.1747 20.4885 16.3572H18.8207C18.8455 16.1723 18.9113 15.9956 19.0133 15.8406C19.148 15.634 19.3667 15.5218 19.6747 15.5218ZM37.6823 15.5218C37.9885 15.5218 38.1862 15.634 38.3368 15.8424C38.4322 15.9967 38.4843 16.1748 38.4873 16.3572H36.8247C36.8504 16.1736 36.9136 15.9977 37.0103 15.8406C37.1538 15.634 37.3725 15.5218 37.6805 15.5218H37.6823ZM28.78 15.536C29.088 15.536 29.305 15.634 29.4502 15.8424C29.6007 16.0508 29.676 16.3429 29.676 16.7188C29.676 17.1017 29.6008 17.3938 29.4573 17.6094C29.3068 17.8107 29.088 17.9158 28.78 17.9158C28.472 17.9158 28.255 17.8107 28.1168 17.6094C27.9662 17.3938 27.898 17.1017 27.898 16.7188C27.898 16.3447 27.968 16.0508 28.1098 15.8424C28.2533 15.6411 28.472 15.536 28.78 15.536ZM14.5473 16.8007C14.8833 16.8096 15.1842 16.8577 15.1842 16.8577V17.8605C15.1842 17.8605 14.8833 17.914 14.5543 17.9371C14.0765 17.9567 13.8647 17.8035 13.8717 17.8035C13.7755 17.7341 13.7685 17.7145 13.7335 17.6717C13.6821 17.5863 13.6583 17.4866 13.6652 17.3867C13.6652 17.1908 13.7352 17.0518 13.8717 16.9628C13.8717 16.9628 14.0695 16.7953 14.5473 16.8025V16.8007Z" fill="#FEA162"/>
</svg>
