<svg width="60" height="60" viewBox="0 0 60 60" fill="none" xmlns="http://www.w3.org/2000/svg">
<path d="M46.6667 5.45455H56.6667C57.5507 5.45455 58.3986 5.74188 59.0237 6.25335C59.6488 6.76481 60 7.4585 60 8.18182V57.2727C60 57.996 59.6488 58.6897 59.0237 59.2012C58.3986 59.7127 57.5507 60 56.6667 60H3.33333C2.44928 60 1.60143 59.7127 0.976311 59.2012C0.351189 58.6897 0 57.996 0 57.2727V8.18182C0 7.4585 0.351189 6.76481 0.976311 6.25335C1.60143 5.74188 2.44928 5.45455 3.33333 5.45455H13.3333V0H20V5.45455H40V0H46.6667V5.45455ZM46.6667 10.9091V16.3636H40V10.9091H20V16.3636H13.3333V10.9091H6.66667V54.5455H53.3333V10.9091H46.6667ZM13.3333 21.8182H46.6667V27.2727H13.3333V21.8182ZM13.3333 32.7273H46.6667V38.1818H13.3333V32.7273Z" fill="#9747FF"/>
</svg>
